<?xml version="1.0" encoding="UTF-8"?>
<!DOCTYPE svg PUBLIC "-//W3C//DTD SVG 1.1//EN" "http://www.w3.org/Graphics/SVG/1.1/DTD/svg11.dtd">
<!-- Creator: CorelDRAW -->
<svg xmlns="http://www.w3.org/2000/svg" xml:space="preserve" width="50.6223mm" height="42.1368mm" version="1.1" style="shape-rendering:geometricPrecision; text-rendering:geometricPrecision; image-rendering:optimizeQuality; fill-rule:evenodd; clip-rule:evenodd"
viewBox="0 0 28768.3 23946.1"
 xmlns:xlink="http://www.w3.org/1999/xlink"
 xmlns:xodm="http://www.corel.com/coreldraw/odm/2003">
 <defs>
  <style type="text/css">
   <![CDATA[
    .fil0 {fill:#B5843C}
   ]]>
  </style>
 </defs>
 <g id="Layer_x0020_1">
  <metadata id="CorelCorpID_0Corel-Layer"/>
  <path class="fil0" d="M20991.2 11668.1c0,-460.3 334.6,-662.6 718.8,-770.4 995.1,-279.3 2451.7,-221.2 3301.2,272.6 219.9,127.8 537,313.8 714,491.6 264.7,266.1 371.9,308.9 371.9,833.6l-11.7 2032.9c0,22.4 57.8,297 -98.1,363 -192.1,81.3 -4155.9,38.9 -4688.9,38.9 -205.4,0 -307.3,-53 -307.3,-260.1l0 -3002.1zm4160.4 -3309.4c1112.2,0 945.5,581.6 945.5,1678.3 0,93.1 -16.8,107.9 -16.8,165.5l16.8 449.1c0,72.9 -11.8,53.3 -11.7,94.6l11.7 330.9c0,260.2 -23.6,428.3 -23.6,685.5 -3.7,-4.2 -9.1,-16.7 -10.7,-13l-124.7 -135.4c-64.7,-61.8 -101.2,-76.5 -166.2,-141.1 -89.5,-89.1 -232.4,-203.6 -343.8,-270.8 -871.7,-525.3 -1787.5,-786.4 -2925.3,-693.9 -917.4,74.6 -1340.1,138.7 -2244.2,497.9 -1085.3,431.3 -1991.8,967.4 -2969.4,1616.5l-1242.2 885.3c-63.3,46.5 -107.7,84.5 -175.8,131.5 -245.6,169.5 -473,321.5 -723.3,482.2 -127,81.6 -252.5,150.7 -389.2,225.4 -145,79.2 -247,143.3 -406.7,207.9 -143.6,58.1 -270.6,129.3 -431.6,183 -300.8,100.4 -655,209.5 -966.3,262.9 -515.8,88.5 -1021.1,40.3 -1530.4,-53.6 -85,-15.7 -193.6,-56.7 -289.9,-64.7 21.4,80 -16.4,55.2 246.1,132.1 1419.4,416.2 2505.6,58 3780.5,-573.3l2786.3 -1823.2c283.9,-190 459.5,-326.1 782.5,-517.6 161.5,-95.8 718.3,-432.9 890.9,-432.9 118.4,0 70.9,390.4 70.9,614.6l0.1 8391.9c-19.8,400 -136.6,761.7 -540.3,878 -65.3,18.8 -227.4,53.1 -293.2,61.4 -56.1,7.1 -103.8,1.9 -156.4,9 -79.3,10.7 -66.7,26 -144.9,44.2l0 70.9c156.2,0 308.8,-4.4 455.7,-10.2l3061.3 0.5c63.9,6 113.9,28.9 123.4,-84.8 -504.4,-117.5 -1205.6,60.5 -1205.6,-1158.3l0 -5058.7c0,-114.3 67.1,-212.8 189.1,-212.8l4798.7 0c205,0 104.5,888 99.3,1065.9 -2.2,72.2 18.9,103 18.9,210.6l0 2292.9c0,110.5 1,221.3 0.8,331.8 -0.2,146.1 -24.9,183.2 -25.2,329.3 -0.7,247 24.4,408.7 24.4,662.7 0,281 -23,405.5 0.6,684.9 20.1,237.1 58.5,405.9 170.9,561.9 194.3,269.7 579.9,455.2 1034,455.2l1394.7 0c71.4,0 65.4,-27.8 70.9,-94.6 -1069.9,0 -1418.3,-393.5 -1418.3,-1347.4l0 -10779.2c0,-821.6 69.4,-1131.7 722.8,-1262.9 132.5,-26.6 185.9,21.7 246.4,-60.9 -68.2,-84.1 -644.2,-47.3 -780,-47.3l-2102.8 1.1c-34.7,2.6 -146.4,17.3 -185.9,26.8 -76.5,18.5 -90.8,17.3 -98.8,113.9z"/>
  <path class="fil0" d="M8533.6 85.1l0 70.9c508.5,0 935.9,-3.6 1208.5,304.4 222.3,251.3 280.7,541.6 280.7,901.2l0 8344.5c0,309.3 -86.8,668.9 -188.7,875 -288.8,584.4 -641.4,447.8 -537.3,540.6l40.4 26.4c-58.5,-1.3 -94.7,-11.4 -112.1,-8.5l-25.1 12.9c-14.8,6.4 67.2,40.3 -25.9,4.2 -77.9,-30.2 79,-36.9 -87.6,-26.7 -42.7,2.6 -64.5,18.1 -151.2,18.1l47.1 22.2c55.2,35.3 37.5,-18.6 23.9,25.1 -73.1,0 -116,-3.1 -185.6,-9.4 -73.1,-6.6 -88.5,-34.3 -98,80.4l2978.4 0 0 -94.6c-158.5,0 -568.4,-43.2 -692.5,-87.6 -523.6,-187.1 -730.5,-725.2 -726.2,-1259.5l0.4 -1158.7c0,-471.3 -21.3,-864.7 -24,-1324.1 -1.3,-218 50.2,-419.2 17.2,-655.5 -20.9,-149.7 5.1,-278.1 1.6,-405.1 -1.8,-63.7 -18.5,-70.2 -18.5,-168.3l13.9 -1941.3c1.5,-63.1 -13.9,-48.3 -13.9,-138.9l20.3 -878.2c7.1,-121.5 -32.7,-301.8 -16.8,-442.1 28.5,-251.1 -12.1,-245.6 -4.5,-428.1 4.5,-107.6 24.7,-95.3 24.7,-213.6 0,-132.4 -38.1,-206.9 -17.4,-347.9 26,-177.4 -2.7,-181.3 -6.2,-337.6l71.5 141.2c20.6,47.3 46.9,95.8 70.4,142.4l992.1 2128.1c92.9,212.3 184.6,379.6 277.5,597.2l1269.3 2749.2c82.5,208.8 200.9,401.6 287.7,610.6 51.5,124.1 89.1,188.8 142,307.1 96.8,216.5 177.9,405.6 277.6,620.7l275.9 598.7c195.5,403.1 355.1,832.9 559.3,1237.3 57.9,114.7 89.8,183.4 139.6,309.5 41.7,105.7 120.2,221.1 128.4,320.6l47.3 0c29.4,-126.2 526.1,-1123.1 591,-1252.9l1678.9 -3450.7c28.8,-55.7 44.8,-107.4 70.8,-165.7 197.9,-445.3 465.3,-955.3 693.1,-1410.7 222.7,-445.4 487.4,-936.6 691.2,-1389l545.8 -1108.9c107.6,-214 200.2,-400.4 307.3,-614.6l315.2 -630.4c0,2458.4 0,4916.9 0,7375.3 0,1020.5 119.9,1641 -709.2,2056.5 -262.6,131.6 -382.7,114.8 -346,199.5 28.1,64.9 82.5,21.2 261.3,-24.2 653.9,-166.1 929.6,-423.9 1735.9,-557.1 276.3,-45.6 572,-38.2 869.3,-78.2 138.4,-18.6 251.8,28.5 387.2,-36.4 -50.6,-69.1 -36.8,-41.3 -150.8,-61.9 -166.5,-30.1 -323.5,-72.4 -457.4,-180.9 -398.4,-323 -290.1,-973.7 -290.1,-1435.5l-17.7 -2474.5c41.4,-403 31,-1054.2 17.7,-1498.5l8.9 -3488c104.5,-576.1 534.1,-812.6 1149.4,-812.6 -3.6,-158.1 -145.7,-94.6 -496.4,-94.6 -283.9,0 -1692.1,-38.8 -1772.9,11.8 -80.1,106.7 -201.3,395.3 -275.6,540 -29.8,58.3 -52.3,91.1 -74.7,138.1 -428.9,901.8 -889,1788.5 -1336,2682.6 -194,388 -383.9,746.8 -559.8,1142.2 -275.7,620.1 -627.7,1210.7 -914,1828l-756.1 1560.5c-99.3,198.5 -184.3,368.9 -283.7,567.3 -53.9,107.8 -82.3,180.4 -133.8,291.7 -41.4,89.4 -88.5,217.1 -157.7,267.8 -30.1,-129.5 -161.9,-366.8 -228.2,-504.6l-1083.5 -2296.9c-14.9,-29.6 -25.4,-57.3 -36.4,-81.8l-2464.7 -5288.8c-56.9,-132 -87.3,-219.9 -150.7,-345.7 -329.3,-653.9 -41.9,-512.1 -1000.7,-512.1 -276,0 -1533,-43.5 -1779.2,39.5 -49.3,16.7 -67.5,21.1 -112,31.4z"/>
  <path class="fil0" d="M8037.2 21005.4c232.9,0 618.4,-122.5 851,-141.8l-374.8 192.4c-332.7,123.5 -941.9,69.5 -1161.6,-121.5 381.9,31.8 97.2,70.9 685.5,70.9zm-523.6 -570.9c87.6,-25.1 314.3,-67.4 429.1,-67.4 343.8,0 918.6,203.8 1063.7,401.9 -106.9,-2.4 -93.9,-23.6 -212.8,-23.6l-1181.9 23.6c61.7,84.1 105.9,48.5 270.2,40.8 66.7,-3.1 5.8,-2.2 68.5,1.3 131.3,7.2 261.8,5.2 394.2,5.2l0 23.6c-123.9,0 -219.4,37.2 -332.1,46.2 -40.6,3.2 -149.9,5.5 -188.9,2.1l-110.9 -31.1c-5.3,-2.1 -11.1,-5.2 -16.4,-7.2 -111,-41.5 -348.5,-31.8 -555.8,-106.1 -51.5,-18.4 -20.6,-4.2 -48.8,-22.1 62.4,-14.5 125.8,-22.3 198.6,-37.9 231.1,-49.6 332.5,-80.3 605.2,-80.3 379.7,0 587.1,84.4 709.2,94.6l0 -70.9c-115.2,-9.6 -244.5,-41.4 -348.3,-77.2 -149.7,-51.7 -204.6,-28.6 -375.5,-51.9 -198.7,-27.1 -533.8,81.8 -718.2,81.8l351 -145.4zm-3802.3 -2407.6c20.9,56.1 -14.2,31 47.3,47.3l0 47.3c-130.5,30.4 -224,75 -354.6,47.3l307.3 -141.8zm638.2 165.5c149.7,0 299.6,-0.6 449.3,0.2 401.1,2.2 883,-212.9 1110.8,-212.9 -76.8,66.8 -290.2,173.2 -378.2,212.8 -342,153.6 -1001,157.2 -1181.9,0zm-520 -165.5c71.1,-106.2 370.9,-276.4 513.1,-337.9 403,-174.1 910.4,-221.7 1334.2,-67.6 103.6,37.7 297.3,143 351,216.3 -352,0 -630.5,52.7 -965.1,98.7 -140.2,19.2 -192.7,4.7 -264.1,66.8 408.5,0 464.5,-70.9 661.9,-70.9l0 23.6c-166.5,0 -172.4,49 -326.8,75 -589.6,99.3 -698.8,-4.1 -1304.2,-4.1zm5058.7 -1323.7c0,-135.3 26.7,-213.2 49.7,-328.6 20.5,-102.5 31.3,-210.9 51.3,-326.9 80.6,-465.9 273.1,-1019.2 381.4,-1462.4 27.9,-114.3 31.9,-189.8 108.6,-245.9 7.4,88.4 40.9,191.5 61.1,293.5 61.8,312.2 104.3,610.7 104.3,935.8 0,843.8 -607.1,1648.3 -614.6,1985.6l-47.3 0c-20.8,-250.1 -94.6,-41.4 -94.6,-851zm-4964.1 -1749.3c-231.6,5.1 -416.6,129.2 -685.9,141.4 -467,21.1 -910.2,21 -1342.9,-263.7 -96.7,-63.6 -402.7,-297.2 -429.6,-397.7 71.9,16.7 68.2,27.2 143.7,45.4 63.1,15.3 87.5,18.1 154.3,34.8 773.5,193.4 906.4,145 1587.2,280.2l527.7 134.2c53.6,24.2 20.9,8.2 45.6,25.3zm4704.1 1252.9c0,-692.9 201.1,-979.9 441.3,-1426.1 60,-111.4 135,-331.4 220.6,-394.1l-170.3 515.3c-137.1,495.4 -373.4,713.3 -373.4,1635.8l0 520c0,-188.4 -118.2,-325 -118.2,-851zm1149.3 -1598.5c38.5,114.7 63.5,183.8 94.3,307.5 200.4,803.7 104.4,1477.9 -402.5,2132.1 -44.7,57.8 -77.1,91.3 -132,128 132.3,-567.7 449.2,-563.2 449.2,-1678.3 0,-204.6 -32.3,-332.8 -47.9,-519.4 -22.6,-269 -241,-1004.7 -226.1,-1150.7 0.2,-2.3 23.9,-102.5 27.1,-112.7l34.2 -84.6 118.2 661.9c-20.7,7.3 -40.5,-30.7 -47.3,47.3 100.5,26.8 56.1,12.6 87.6,125.1 17.2,61.4 25.7,85.3 45.3,143.8zm-6561.4 -530.2c317.1,182.9 742.3,455.9 944.3,757.6l-851 -236.4c-482.8,-119.6 -817.3,-239.3 -1257.6,-349.8 -398.7,-100.1 -979.4,-158.7 -1139,-208.4l-180 -80c400.7,-33.3 227.6,-61.3 708.4,-47.6 427,12.2 863.7,198.6 1256.6,328.3 110.4,36.5 186.3,66.1 298.6,103.2 81.8,27 183.8,80.1 289.3,88.9 -69.5,-94.9 -260.3,-145.8 -373.7,-193.7 -575.2,-242.8 -635.5,-266.8 -1226,-429.2 -40.1,-11.1 -128.3,-31.3 -149.4,-30.1 -171.6,10.1 109.5,9 -94.7,37.6 -81.3,11.4 -262.8,0.8 -354.6,0.8 26.5,-16.8 -13.4,-0.6 48,-22.9l353.8 -71.7c690.5,0 1159.3,25.9 1726.8,353.4zm3119.1 -660.7c70.3,-132.9 144.8,-255.7 226.4,-388.2 231.6,-376 411.8,-955.9 411.8,-1408.3l23.6 0c0,229.9 52.4,378.1 31.5,549.4 -27.8,228.2 -129.1,550.8 -239.6,731.7 -91.9,150.3 -134.1,254.8 -269.9,392 -41.1,41.5 -126.3,108.1 -183.8,123.5zm-189.1 94.6c-27.9,-119.6 -13.3,-543.7 1.1,-731.7 16.4,-214 99.6,-447.8 161.1,-619 47.9,-133.3 449.7,-884.8 570.7,-965.9 0,443.2 -94.6,712.2 -94.6,851 -114.4,-24.3 -33.3,-18.7 -70.9,0 48.8,147.2 6.3,-77.5 40.7,61 35.5,142.8 -243.3,747.5 -328.5,880.5l-279.5 524.1zm-212.8 -803.7c0,-172.1 52.8,-451.4 97.1,-588.5 45,-139.2 134.7,-356.2 216.5,-469 182.3,-251.3 90.6,-113.7 150.6,-167.2 37.7,-33.6 4.3,-26 31.2,-77.9l402.9 -423.1c-14.5,175 -226.4,385.8 -368.5,624.3l-144.1 234.1c-79.3,144.9 -241.2,545 -268.1,701.2 -30.7,178.2 0.7,486.7 0.7,733.4l-118.2 -567.4zm-3025.8 -1938.3l0 -47.3c-132.9,-11.1 -327.1,-92.2 -425.6,-141.7 -121.6,-61.2 -251,-127 -348.9,-218.3 -156.1,-145.7 -388.4,-475.1 -407.4,-703.7 70.4,51.5 178,254.8 245.8,345.1 47.7,63.5 89.1,88.9 135.8,147.9 103.5,130.8 331.8,312.8 484.8,389.8l386.4 180.9c-36.8,50.3 -1.8,30.7 -70.9,47.3zm-419.2 -975.5c146.2,146.2 494.1,600.4 537.4,786.3 -74.7,-17.4 -355.9,-190.6 -422.2,-239.6 -295.5,-218.6 -429.7,-352.1 -627.4,-649.2 -50.5,-75.8 -87.1,-125.3 -136.2,-194.8 -42.2,-59.7 -83.4,-128.3 -90.8,-216.6l318.8 199.4c21.5,22.8 20.2,35.1 26.6,44 36.8,52 38.5,-11 211.9,121.1 78,59.4 113.7,81 181.9,149.2zm688.5 753.5c-1.9,-4.5 -4.8,-11.8 -6.9,-16.8l-526.1 -797.7c-20.3,-18.4 -28.4,-24.6 -49.6,-45 -94.1,-90.1 -210.4,-228.5 -336,-278.6l-262.8 -139.1c-87.3,-51.9 -175.3,-115.1 -249.7,-175.8l-209.2 -192.7c158.2,3.5 492.4,160.1 631.7,219.2 499.1,212.1 720.1,469 929.2,938.3 88.7,199 93.8,263.5 93.8,520.8l-14.4 -32.8zm2709.2 -1952.8c1.3,-1.9 378.1,-341.9 604.7,-671.8l222.4 -415.8c30.8,-69 58.7,-141.9 88.4,-218.8 24.6,-63.7 18.8,-52.6 39.2,-126.3l38.1 -103.8c0,503.7 -423.2,1276.7 -790.2,1480.6l-202.7 55.9zm-378.2 94.5c147.6,-633.4 379.2,-977.7 821.4,-1424.3l384.2 -348.6c0,264.5 -294.4,839.6 -448.8,1040.4 -32.1,41.8 -49.2,58.2 -84.8,104.4 -32.4,42 -49.9,71.3 -82.9,106.2l-98.7 90.5c-213.6,204.5 -245.6,199.6 -308.1,259.2 -67.1,64 -108.8,123.1 -182.3,172.3zm-94.6 -118.1c12.3,-549.8 235.6,-1050.7 643.8,-1412.9l121.1 -91.6c171.2,-151.7 172.4,-128 351,-239.9 73.1,-45.8 172.8,-124.7 255.2,-146.7 -66.2,125.1 -110,118.6 -206.7,219.4 -125.9,131.2 -214.5,4.1 -732.1,638.4l-220 394.6c-81.9,181.2 -165,375.8 -165,638.7l-47.3 0zm-1158.3 -236.4c0,-1069.9 236.4,-1950 604.5,-2870.4l794.6 -1522c45.3,-66.5 82.2,-111.1 130.9,-176.4l593.8 -706.3c27.2,-30 38.4,-43.1 68.5,-73.4l377.3 -355.5c81.4,-68.9 500.2,-398.9 527.1,-454 -83.3,1.9 -31.7,-4.3 -105.4,47.5l-455.3 302c-61.1,45.9 -100.9,73.2 -162.5,121.1 -68.5,53.2 -95.2,95.9 -158.4,148.9l-460 438.3c-762.5,755.7 -1434,2103.4 -1684.3,3114.4 -392.3,1585.5 -367.4,3284.8 -21.4,4891.1 16.1,74.6 29.7,129.9 49.8,210.2l213.1 827c26.3,93.8 105.1,311.4 113,407 -21,-24.2 -1.4,4.4 -30.1,-40.8l-705.8 -1090.8c-33.4,-44.6 -60.1,-79.4 -91.4,-121.3 -28,-37.4 -60,-83.9 -90.9,-121.9l-284.5 -330.1c-203.4,-269.9 -60.4,-483.2 -152.3,-793.3 -105.4,-355.5 -272.9,-629.2 -552.6,-865.7 -154.9,-131 -321,-249.9 -504.8,-346.2 -300.6,-157.6 -715.8,-249.9 -1032.4,-385.9 -68.5,-29.4 -144.5,-74.6 -195.4,-88.1 8.3,99.8 18.7,71.7 70.4,142.4 220.6,301.9 324.2,661.4 420.7,1021.2 164.5,612.6 614.3,1088.3 1264.6,1193.9 521.9,84.7 474.2,122.6 791.6,461.2 64.4,68.8 116.6,147.2 178.7,223.2 121,148.2 224.8,312 328,475.7 58.2,92.2 103.6,178 160.9,264.6 52.2,78.9 101.8,159.1 155.5,246.4l241.8 396.5c89.6,142.1 145.3,241.9 202.4,412.2 202.1,602.8 597.6,1359.2 923.2,1913.5 121.4,206.7 562.2,844.3 604.7,1026.4 -103.3,-54.6 -407.8,-326.9 -502.6,-419.3l-883.9 -629c-362.9,-184 -419.5,-238.7 -676.9,-552.3 -61,-74.4 -132,-124.3 -228.6,-153.3l-130.3 -54.4c-45.6,-30.7 -63.7,-36.5 -81.7,-82.2 -58.5,-148.4 38.9,35.7 -0.7,-68.6 -18.3,-48.2 -135.3,-60.9 -190.2,-73.7 -17.8,-38.6 -16.1,-72.1 -16.7,-73.5l-29.2 -45.7c-94.3,-91.7 -242.5,-151.6 -355.9,-211.7l23.6 70.9c-71.2,-19 -39.9,-15.7 -99.5,-42.3 -227.4,-101.7 -487.3,-241.3 -751.5,-241.3l63.1 -36.4c26.4,-18.5 1,57.3 31.4,-34.5 -184,0 -297.7,-70.9 -496.4,-70.9 -752.1,0 -1000,58.7 -1687.9,297.7 -143.8,50 -213.6,115.3 -368.7,151.4l0 47.3c977.5,0 1196.7,491.8 1637.5,821l308.5 187.9c1009.2,507.4 1846,-123.8 2309,-16 11.4,32.1 -12.2,23 -47.3,70.9 127.4,0 96.3,-23.1 187.4,1.5 295.8,79.9 722.5,360.4 966.2,523.2 449.2,299.9 596.7,518.6 923.1,779 323.4,257.9 550.8,599.9 797.1,928.5l548.1 728.4c77.3,86.3 129.7,133.4 194.8,230.7 -94.7,-22 -221,-99.6 -306.9,-142.2 -93.3,-46.3 -211.2,-86.7 -322.4,-126.7 -118.8,-42.7 -218.5,-81 -341.1,-108 -123.4,-27.1 -260.3,-32.2 -386.2,-62.9 -315.4,-77 -568.5,-529.4 -1267.1,-529.4 -692.4,0 -1117.5,294 -1621.8,623.9l-301.9 218.1c-47.8,39.2 -53.8,28.7 -61.9,103.5 111.7,-26 223.7,-70.9 354.6,-70.9 470.6,0 728.3,260.1 1181.9,260.1 551.7,0 813.6,-53.5 1243.4,-340.4 148.6,-99.2 243.5,-226 445,-191.6 210.1,35.9 345.2,77.8 515.2,125 372.7,103.5 583.1,278.4 912.1,388.1 61.9,20.6 250.7,202.7 369.6,292.3 311.1,234.6 565.2,514 858.5,772.5l2251.4 1932.7c-196.5,-45.8 -851.8,-474.8 -1660.7,-632.3 -497.7,-96.9 -415.5,-160.6 -789.9,-368.3 -631.7,-350.5 -1284.2,-300.6 -1898.9,7.7 -185.2,92.9 -552.6,283.7 -720.6,414.1 -62.5,48.5 -39.8,8.7 -59.4,82.3 149.7,-12.4 239.4,-70.9 425.5,-70.9 486.4,0 1182.4,744 2214.8,229.1 236,-117.8 296.5,-280.5 574.8,-230 887,160.8 1638.2,569.6 2388.6,1016l532.1 318.9c717.2,431.3 1487.6,820 2294.2,1086.2 663.1,218.8 1325.4,408.6 2022.2,507.1 613.1,86.7 1349.1,157.6 2005.5,122.2 425,-22.9 918.2,-53.1 1340.6,-125 681.8,-115.9 1695.5,-288.2 2299.6,-607.9 -71.3,-41.5 -208.6,21.5 -283.6,47.3 -1802.9,622.3 -4194.1,629.4 -6018.2,226.6 -477.3,-105.4 -944.5,-244 -1394.6,-425.6 -86.2,-34.7 -169.3,-73.6 -246.8,-107.8l-496.1 -213.1c-245.4,-99.2 -470.8,-247.5 -709.4,-354.3 -317.8,-142.2 -620.3,-338.6 -911.8,-530.2l-647.9 -439.5c-400.2,-301.2 -832.4,-608.2 -1187.4,-963.7l-287.3 -256.4c-189.1,-186.6 -229.1,-254.3 -360.8,-513.8 -175,-344.8 -339.3,-575.5 -488.2,-953.8 -200,-508.3 -95.6,-714.5 -101.4,-912.8 -4.1,-136.8 -45.9,5.3 -10.1,-112.2 63,-206 285.2,-322.1 412.4,-485l296.5 -412.6c189.1,-332.7 284.3,-736.5 284.3,-1134 0,-511.8 -382.5,-1730.5 -524.8,-2335.5 -40.9,-173.7 4.1,-246.9 -113.5,-288.4 -7.3,327.2 -263.7,1000.9 -409.5,1292.5l-191.4 352.3c-486.9,820.9 -658.7,1760.2 -242.5,2649.8 145.9,312 215.5,481 282.3,828.8 169.5,883.3 601.5,1363.3 655.7,1566.3l-1223.5 -1069.5c-38.9,-39 -53.7,-54.7 -91.4,-97.7l-948.9 -1131.2c-344.3,-416.6 -628.1,-908.2 -872.5,-1396.8 -232.2,-464.1 -339.7,-1007.7 -338.3,-1552.9 0.8,-293.9 -28.9,-678.9 221.9,-864.9 155.2,-115 282.2,-200.2 399.5,-356.9 335.8,-449 418.5,-823.6 418.5,-1401.7 0,-278.1 -94.6,-470.2 -94.6,-756.5 0,-322.2 128.8,-545 189.1,-803.7 -109.5,29.2 -179.5,139.7 -246.4,226.4l-692.4 726c-553.5,654.3 -687.4,1431.1 -417.3,2247.4 97.1,293.5 -13.5,883.6 75.9,1413.3 25.1,148.7 74.5,268.4 74.5,421.9 -93.3,-107.3 -160.4,-238.1 -228.3,-362.7 -73.7,-135.3 -145,-241.1 -213.3,-377.7l-385.4 -796.5c-128.8,-284.5 -216.9,-562.1 -313.4,-868.6 -225.4,-716 -212.9,-1323.8 -111.3,-2061 70,-507.3 326.9,-1562.7 690.4,-1862.6 147.1,-121.3 898.5,-148.9 1364.7,-1188.3 209.6,-467.4 155,-841.7 219.4,-1317.1 22.1,-163.3 71.1,-239.7 111.8,-372.8 -62.9,1.4 -91.9,37.8 -158.8,89.3 -329.9,253.9 -695.9,468.2 -1017.8,731.7 -371.8,304.4 -646.3,684.2 -749,1260.2 -49.8,279.4 -6.4,650.4 -115,901.5 -266.7,616 -478.3,1262.4 -536.7,1945.4 -11.3,131.6 -46.6,320.3 -46.6,449.8l-47.3 0c0,-401.1 -155.3,-784.9 -187.1,-1183.9 -17.6,-220.6 -56.3,-415 -71.7,-613.9 -34.8,-448.8 -24.9,-915.4 -24.9,-1369.8z"/>
  <path class="fil0" d="M9053.6 17081.4c63.9,-92 237.5,-982.9 253.7,-1070 48.4,-259.3 148.1,-917.1 148.1,-1175.6l-47.3 0c0,345.4 -124.9,764.9 -186.3,1113.9 -48.1,273.5 -168.3,900.2 -168.3,1131.8z"/>
  <path class="fil0" d="M5744.2 8358.7c258.1,-172.9 487.9,-560.7 652,-837.3 39.6,-66.7 160,-287 175.3,-344.7 -76.2,20.3 -83.2,51.8 -125.3,111 -140.8,198 -212.7,234 -428.1,564.7 -42.2,64.8 -56.2,98 -101.3,158.8 -79.4,107 -159,183 -172.6,347.4z"/>
  <path class="fil0" d="M4136.8 17956c98.1,-8.2 224.8,-49.7 329.2,-72.7 553.7,-122 520.6,-92.8 1160.1,-92.8 -46.8,-63.8 -65,-61.7 -266.3,-88.5 -48.1,-6.4 -103.8,-9.3 -152.4,-13.3 -192.6,-15.6 -492.2,9.6 -683,63.9 -138.9,39.6 -321.9,105.2 -387.6,203.3z"/>
  <path class="fil0" d="M6240.7 12991.9c57.2,-20.7 19.7,4.7 52.9,-41.6 20.6,-28.5 21.1,-46.1 36,-82.2l174.5 -463.7c36.1,-96.6 78.8,-209.5 112.1,-313.5 18.6,-58.3 31.2,-117.4 45,-167.8 25.6,-93.8 44.8,-93.6 52.3,-184.1 -86.7,23.2 -100.3,84.5 -172.3,253.2 -285.7,669.7 -155.1,375.9 -300.5,999.7z"/>
  <path class="fil0" d="M3380.4 14977.5l-611.5 -73.7 -712.1 -210.2c-63,-28.9 -88.9,-52.9 -165.7,-70.8 26,97.5 126.7,133 276.3,196.5 338.2,143.7 443.7,131.2 786.7,159.1 285.3,23.3 150.2,-1 426.2,-1z"/>
  <path class="fil0" d="M2009.8 9518.7c-52.3,-22.1 -12.7,-18.2 -47.8,-1.7l262.4 328.5c3.4,3.5 8.2,8.6 11.7,12 108.3,108.3 388.7,384.6 506,415.9 -20.3,-86.9 -45.6,-124.3 -103.1,-180.5l-629.2 -574.2z"/>
  <path class="fil0" d="M2009.3 9138.8c36.4,49.6 89.1,77.1 146.2,113.8l425 284.1c327.4,243.7 338.3,412.9 468.8,500.3 -47.2,-202.4 -272.3,-417 -432.1,-537.2 -137.8,-103.7 -443.8,-322.8 -608,-361.1z"/>
 </g>
</svg>
